<?xml version="1.0" ?><!DOCTYPE svg  PUBLIC '-//W3C//DTD SVG 1.1//EN'  'http://www.w3.org/Graphics/SVG/1.1/DTD/svg11.dtd'><svg xmlns="http://www.w3.org/2000/svg" xmlns:xlink="http://www.w3.org/1999/xlink" version="1.1" id="Layer_1" width="512px" height="512px" viewBox="0 0 512 512" enable-background="new 0 0 512 512" xml:space="preserve"><g><rect x="147.597" y="13.919" fill-rule="evenodd" clip-rule="evenodd" fill="#FFF584" width="356.897" height="443.665"/><g><path fill="#5B57A4" d="M186.667,195h279.768c4.143,0,7.566-3.122,7.566-7.264V46.894c0-4.139-3.423-7.894-7.566-7.894H186.667    c-4.143,0-7.667,3.755-7.667,7.894v140.843C179,191.878,182.524,195,186.667,195z M194,54h265v126H194V54z"/><path fill="#5B57A4" d="M441.085,157.427l-22.461-41.574l21.085-38.646c0.827-1.75,1.376-3.149,1.651-4.177    c0.249-1.024,0.123-1.798-0.426-2.348c-0.525-0.522-1.497-0.848-2.921-0.971c-1.399-0.126-3.349-0.202-5.775-0.202    c-2.195,0-3.921,0.052-5.166,0.147c-1.253,0.104-2.228,0.279-2.927,0.479c-0.7,0.222-1.224,0.522-1.526,0.921    c-0.321,0.399-0.622,0.878-0.918,1.479l-16.192,31.303l-16.612-31.303c-0.277-0.601-0.603-1.079-0.9-1.479    c-0.325-0.398-0.875-0.699-1.648-0.921c-0.776-0.199-1.852-0.375-3.197-0.479c-1.329-0.096-3.15-0.147-5.451-0.147    c-2.771,0-4.918,0.076-6.444,0.202c-1.501,0.123-2.55,0.424-3.095,0.946c-0.579,0.502-0.702,1.301-0.375,2.351    c0.325,1.049,0.919,2.448,1.799,4.198l21.085,38.871l-22.686,41.35c-0.948,1.697-1.55,3.072-1.852,4.097    c-0.272,1.021-0.199,1.799,0.302,2.349c0.501,0.524,1.424,0.874,2.822,1.024c1.377,0.148,3.347,0.225,5.897,0.225    c2.196,0,3.947-0.05,5.294-0.153c1.35-0.099,2.401-0.275,3.149-0.473c0.749-0.225,1.301-0.522,1.652-0.924    c0.349-0.401,0.647-0.875,0.948-1.474l17.712-34.175l17.791,34.175c0.248,0.599,0.521,1.072,0.87,1.474    c0.35,0.401,0.904,0.699,1.651,0.924c0.749,0.197,1.798,0.374,3.097,0.473c1.322,0.104,3.12,0.153,5.424,0.153    c2.746,0,4.866-0.076,6.416-0.225c1.526-0.15,2.6-0.5,3.175-1.024c0.599-0.55,0.748-1.328,0.474-2.349    C442.532,160.499,441.958,159.124,441.085,157.427z"/><path fill="#5B57A4" d="M360.364,157.5l-29.282-83.945c-0.301-0.946-0.651-1.673-1.074-2.195c-0.399-0.55-1.099-0.949-2.046-1.225    c-0.948-0.249-2.276-0.424-3.974-0.5c-1.723-0.074-4.022-0.126-6.895-0.126c-2.475,0-4.5,0.052-5.998,0.126    c-1.521,0.076-2.697,0.251-3.548,0.5c-0.846,0.275-1.473,0.675-1.871,1.175c-0.398,0.521-0.726,1.197-1.026,2.021l-29.207,84.021    c-0.569,1.699-0.943,3.074-1.099,4.097c-0.146,1.025,0.029,1.823,0.529,2.373c0.472,0.576,1.348,0.926,2.621,1.076    c1.277,0.148,3.023,0.225,5.272,0.225c2.102,0,3.797-0.05,5.096-0.153c1.277-0.099,2.298-0.3,2.999-0.549    c0.7-0.273,1.225-0.646,1.524-1.097c0.327-0.478,0.57-1.094,0.773-1.77L299.157,143h35.574l6.371,19.055    c0.202,0.65,0.45,1.17,0.723,1.571c0.301,0.399,0.826,0.711,1.55,0.935c0.725,0.2,1.798,0.355,3.175,0.428    c1.4,0.078,3.348,0.13,5.822,0.13c2.392,0,4.271-0.074,5.644-0.198c1.376-0.125,2.323-0.426,2.847-0.948    c0.551-0.503,0.726-1.275,0.598-2.298C361.315,160.649,360.942,159.247,360.364,157.5z M303.405,128l13.388-40h0.072l13.396,40    H303.405z"/><path fill="#5B57A4" d="M281.718,85.402c0.349-0.277,0.65-0.825,0.898-1.429c0.249-0.599,0.429-1.46,0.55-2.458    c0.121-1,0.198-2.221,0.198-3.645c0-1.447-0.077-2.705-0.198-3.73c-0.122-1.022-0.301-1.853-0.55-2.451    c-0.249-0.629-0.549-1.033-0.898-1.309c-0.374-0.273-0.774-0.381-1.225-0.381h-66.751c-0.481,0-0.903,0.104-1.228,0.378    c-0.35,0.276-0.653,0.688-0.896,1.317c-0.229,0.599-0.429,1.418-0.554,2.441c-0.097,1.025-0.176,2.271-0.176,3.718    c0,1.424,0.079,2.624,0.176,3.624c0.125,0.998,0.325,1.821,0.554,2.42c0.243,0.604,0.545,1.228,0.896,1.504    C212.838,85.7,213.26,86,213.742,86H237v76.049c0,0.473,0.386,0.924,0.708,1.298c0.301,0.396,0.949,0.723,1.698,0.946    c0.724,0.254,1.783,0.453,3.003,0.604c1.249,0.148,2.831,0.225,4.677,0.225c1.872,0,3.437-0.076,4.661-0.225    c1.25-0.15,2.258-0.35,2.981-0.604c0.722-0.224,1.361-0.55,1.687-0.946c0.327-0.374,0.585-0.825,0.585-1.298V86h23.493    C280.944,86,281.344,85.699,281.718,85.402z"/><path fill="#5B57A4" d="M185.954,357h101.192c4.142,0,7.503-3.354,7.503-7.496c0-4.145-3.361-7.504-7.503-7.504H185.954    c-4.142,0-7.5,3.359-7.5,7.504C178.454,353.646,181.812,357,185.954,357z"/><path fill="#5B57A4" d="M504.494,6H147.597C143.454,6,140,9.774,140,13.919v443.665c0,4.142,3.454,7.416,7.597,7.416h356.897    c4.143,0,7.506-3.274,7.506-7.416V13.919C512,9.774,508.637,6,504.494,6z M497,450H155V21h342V450z"/><path fill="#5B57A4" d="M185.954,249h280.48c4.143,0,7.496-3.357,7.496-7.5s-3.353-7.5-7.496-7.5h-280.48    c-4.142,0-7.5,3.357-7.5,7.5S181.812,249,185.954,249z"/><path fill="#5B57A4" d="M185.954,409h115.087c4.138,0,7.5-3.356,7.5-7.5c0-4.142-3.362-7.5-7.5-7.5H185.954    c-4.142,0-7.5,3.358-7.5,7.5C178.454,405.644,181.812,409,185.954,409z"/><path fill="#5B57A4" d="M185.954,302h116.829c4.143,0,7.5-3.357,7.5-7.5c0-4.141-3.357-7.5-7.5-7.5H185.954    c-4.142,0-7.5,3.359-7.5,7.5C178.454,298.643,181.812,302,185.954,302z"/></g><path fill="#5B57A4" d="M393.891,272.029c22.104,0,42.116,8.958,56.597,23.443c14.481,14.484,23.442,34.495,23.442,56.593   c0,22.1-8.96,42.106-23.442,56.593c-14.481,14.482-34.493,23.445-56.597,23.445c-22.093,0-42.105-8.963-56.59-23.445   c-14.486-14.486-23.445-34.493-23.445-56.593c0-22.098,8.959-42.108,23.445-56.593   C351.786,280.987,371.798,272.029,393.891,272.029z"/><rect x="7.5" y="241.15" fill-rule="evenodd" clip-rule="evenodd" fill="#F5ACCC" width="212.464" height="256.931"/><rect x="7.5" y="241.15" fill-rule="evenodd" clip-rule="evenodd" fill="#F5ACCC" width="212.464" height="55.031"/><g><path fill="#5B57A4" d="M68.552,456.116c0,1.971,0.853,3.555,2.401,4.76c1.333,1.035,2.884,1.725,4.593,1.725    c3.309,0,5.613-2.642,7.178-5.302l72.822-117.449c1.092-1.739,3.369-5.418,3.369-7.487c0-1.825-0.574-3.496-1.916-4.765    c-1.356-1.286-3.063-1.789-4.903-1.789c-1.843,0-3.613,0.525-4.872,1.937c-1.334,1.503-2.461,3.289-3.493,5.044L70.439,451.184    C69.508,452.593,68.552,454.379,68.552,456.116z"/><path fill="#5B57A4" d="M136.674,399.247c-5.44,7.233-6.713,17.456-6.713,26.267c0,6.24,0.903,12.698,3.654,18.362    c2.294,4.703,5.583,8.601,10.192,11.173c4.521,2.535,9.523,3.614,14.678,3.614c8.036,0,15.347-2.377,20.84-8.436    c6.099-6.775,7.595-16.694,7.595-25.493c0-4.994-0.457-10.097-1.799-14.92c-1.104-3.967-2.87-7.688-5.572-10.821    c-2.501-2.902-5.567-5.098-9.11-6.563c-3.885-1.6-8.129-2.158-12.313-2.158C149.878,390.271,141.86,392.422,136.674,399.247z     M166.273,407.77c3.75,7.916,3.501,25.039,0.071,33.066c-1.488,3.483-4.146,4.964-7.86,4.964c-3.663,0-6.356-1.471-7.893-4.858    c-3.541-7.646-3.2-20.755-1.433-28.886c0.497-2.429,1.411-4.964,3.189-6.775c1.652-1.647,3.882-2.15,6.137-2.15    C162.045,403.13,164.71,404.475,166.273,407.77z"/><path fill="#5B57A4" d="M68.918,395.426c9.872,0,19.299-4.198,24.125-13.122c3.368-6.214,4.307-13.827,4.307-20.807    c0-6.256-0.69-12.716-3.051-18.553c-2.526-6.226-7.111-11.38-13.406-13.93c-3.894-1.59-8.15-2.161-12.333-2.161    c-5.592,0-11.321,1.018-16.074,4.095c-4.436,2.888-7.411,7.059-9.171,12.021c-2.174,6.059-2.772,12.905-2.772,19.307    c0,6.226,0.891,12.69,3.585,18.357C48.829,390.51,58.191,395.426,68.918,395.426z M59.746,348.799    c0.448-2.469,1.327-5.076,3.146-6.895c1.644-1.613,3.771-2.188,6.026-2.188c3.547,0,6.23,1.357,7.788,4.642    c3.482,7.404,3.276,21.347,1.375,29.27c-1.196,5.015-3.337,8.941-9.163,8.941c-5.673,0-8.241-4.033-9.169-9.084    C58.269,365.771,58.248,356.503,59.746,348.799z"/><path fill="#5B57A4" d="M227.222,240.764l-0.111-0.191L227,240.385v-0.005l0.194-0.185l0.078-0.19l-0.132-0.18l-0.14-0.185v-0.005    l0.115-0.18l-0.056-0.181l-0.06-0.177v-0.003l0.038-0.177l-0.012-0.173l-0.042-0.178l0.008-0.17l0.007-0.165v-0.005v-0.162v-0.005    l-0.18-0.163l-0.13-0.165l-0.34-0.16l-0.35-0.152v-0.005l0.005-0.155L226,237.107v-0.002v-0.148v-0.002l-0.014-0.146l-0.058-0.147    l0.034-0.144l0.037-0.138v-0.005v-0.133v-0.005v-0.131v-0.003l-0.493-0.13L225,235.849v-0.005v-0.121v-0.005l-0.064-0.118    l-0.095-0.12l-0.123-0.113l-0.133-0.116l-0.14-0.111l-0.222-0.103L224,234.933v-0.005l-0.002-0.097l0.002-0.096v-0.005    l-0.231-0.087l-0.381-0.091L223,234.474v-0.005v-0.078v-0.003v-0.074v-0.005v-0.068v-0.003v-0.063v-0.006v-0.063v-0.003    l-0.497-0.057L222,233.988v-0.005l-0.08-0.047l-0.129-0.049l-0.16-0.045l-0.318-0.041L221,233.767v-0.002v-0.03v-0.024v-0.002    l-0.228-0.021l-0.213-0.017l-0.2,0.161L220.154,234h-0.19H7.5H7.307l-0.192-0.168l-0.192-0.074l0.04-0.026L7,233.708v0.002    l-0.501,0.024L6,233.765v0.002l-0.099,0.035l-0.136,0.041l-0.162,0.045l-0.3,0.049L5,233.983v0.005v0.057v0.057v0.003v0.063v0.006    v0.063v0.003l-1,0.068v0.005v0.074v0.003v0.078v0.005l-0.118,0.079l0.059,0.091L4,234.73v0.005l-0.501,0.096L3,234.928v0.005    l0.006,0.104l-0.069,0.103l-0.104,0.111l-0.122,0.116l-0.127,0.113l-0.296,0.12L2,235.718v0.005v0.121v0.005l-0.003,0.126    L2,236.104v0.003v0.131v0.005v0.133v0.005l-0.257,0.138l-0.18,0.144l-0.282,0.147L1,236.955v0.002v0.148v0.002l-0.003,0.153    L1,237.416v0.005l-0.092,0.152l-0.086,0.16l0.085,0.165L1,238.062v0.005v0.162v0.005l-0.274,0.165l-0.167,0.17l-0.112,0.178    l-0.227,0.173L0,239.096v0.003l0.094,0.177l-0.048,0.181L0,239.636v0.005l0.043,0.185l0.006,0.18l-0.024,0.19L0,240.38v0.005    l0.004,0.188L0,240.764v0.19v0.005v0.191v55.031v201.899C0,502.226,3.357,506,7.5,506h212.464c4.141,0,7.036-3.774,7.036-7.919    V296.182V241.15v-0.191v-0.005L227.222,240.764z M212,491H15V304h197V491z M212,289H15v-40h197V289z"/></g><path fill="#F5ACCC" d="M439.881,306.079c-11.769-11.768-28.029-19.05-45.99-19.05c-17.951,0-34.212,7.282-45.983,19.05   c-11.771,11.771-19.051,28.03-19.051,45.986c0,17.958,7.279,34.22,19.051,45.984c11.771,11.767,28.033,19.052,45.983,19.052   c17.961,0,34.221-7.285,45.99-19.052c11.772-11.765,19.05-28.026,19.05-45.984C458.931,334.109,451.653,317.851,439.881,306.079z"/><path fill="#5B57A4" d="M386.398,342.949v-22.125c-3.794,0.762-7.142,2.087-9.799,3.826c-3.353,2.184-5.428,4.923-5.428,7.683   C371.171,338.269,377.933,341.006,386.398,342.949L386.398,342.949z M401.395,361.182v22.122c3.793-0.762,7.138-2.087,9.798-3.826   c3.354-2.183,5.429-4.923,5.429-7.685C416.622,365.86,409.852,363.123,401.395,361.182L401.395,361.182z M386.398,303.963   c0-4.142,3.356-7.498,7.493-7.498c4.143,0,7.503,3.356,7.503,7.498v1.668c6.853,0.985,13.046,3.281,17.945,6.477   c7.584,4.96,12.28,12.09,12.28,20.226c0,4.142-3.36,7.502-7.502,7.502c-4.144,0-7.496-3.36-7.496-7.502   c0-2.76-2.075-5.499-5.429-7.683c-2.661-1.739-6.005-3.064-9.798-3.826v25.057c15.918,3.184,30.225,7.88,30.225,25.912   c0,8.138-4.696,15.272-12.28,20.228c-4.899,3.193-11.092,5.492-17.945,6.478v1.668c0,4.142-3.36,7.5-7.503,7.5   c-4.137,0-7.493-3.358-7.493-7.5v-1.668c-6.854-0.985-13.046-3.284-17.944-6.478c-7.587-4.955-12.282-12.09-12.282-20.228   c0-4.14,3.356-7.497,7.496-7.497c4.146,0,7.503,3.357,7.503,7.497c0,2.762,2.075,5.502,5.428,7.685   c2.657,1.739,6.001,3.064,9.799,3.826v-25.057c-15.929-3.181-30.226-7.877-30.226-25.914c0-8.136,4.695-15.266,12.282-20.226   c4.897-3.195,11.09-5.491,17.944-6.477V303.963z"/></g></svg>